<svg xmlns="http://www.w3.org/2000/svg" viewBox="0 0 24 24" width="24" height="24"><path d="M12 2a10 10 0 00-9.95 11.2l-.68 3.35a1 1 0 001.25 1.18l3.4-.68A10 10 0 1012 2zm4.91 13.64c-.42.83-1.39 1.47-2.41 1.36-2.08-.22-4.42-2.07-5.18-3.96-.23-.63-.2-1.3.1-1.89a.74.74 0 011.1-.27l.75.5c.31.2.43.6.28.94-.26.58-.24.8.12 1.17l.44.44c.38.38.59.4 1.17.14.34-.15.74-.02.95.29l.49.75c.28.42.2 1-.26 1.13zm2.8-1.2A10 10 0 0012 22a10.03 10.03 0 01-6.96-2.95 9.93 9.93 0 01-2.64-7.08 9.98 9.98 0 013.55-6.94A10 10 0 0112 2c2.65 0 5.13 1 6.96 2.95a9.93 9.93 0 012.64 7.08c0 2.65-1 5.13-2.95 6.96z"/></svg>
